<svg xmlns="http://www.w3.org/2000/svg" version="1.1" xmlnsXlink="http://www.w3.org/1999/xlink" xmlnsSvgjs="http://svgjs.com/svgjs" width="320" height="185" preserveAspectRatio="none" viewBox="0 0 320 185">
    <g mask="url(&quot;#SvgjsMask1031&quot;)" fill="none">
        <rect width="320" height="185" x="0" y="0" fill="rgba(24, 49, 83, 1)"></rect>
        <g mask="url(&quot;#SvgjsMask1032&quot;)">
            <path d="M318 42L318 6" stroke-width="2" stroke="#3a7cc3"></path>
            <path d="M315 42 a3 3 0 1 0 6 0 a3 3 0 1 0 -6 0zM315 6 a3 3 0 1 0 6 0 a3 3 0 1 0 -6 0z" fill="#3a7cc3"></path>
            <path d="M270 30L306 30" stroke-width="2" stroke="#3a7cc3"></path>
            <path d="M267 30 a3 3 0 1 0 6 0 a3 3 0 1 0 -6 0zM303 30 a3 3 0 1 0 6 0 a3 3 0 1 0 -6 0z" fill="#3a7cc3"></path>
            <path d="M306 186L318 174L318 150L294 126L294 114L318 90L318 78L294 54L294 42" stroke-width="2" stroke="#3a7cc3"></path>
            <path d="M303 186 a3 3 0 1 0 6 0 a3 3 0 1 0 -6 0zM291 42 a3 3 0 1 0 6 0 a3 3 0 1 0 -6 0z" fill="#3a7cc3"></path>
            <path d="M138 54L162 30L162 6" stroke-width="2" stroke="#3a7cc3"></path>
            <path d="M135 54 a3 3 0 1 0 6 0 a3 3 0 1 0 -6 0zM159 6 a3 3 0 1 0 6 0 a3 3 0 1 0 -6 0z" fill="#3a7cc3"></path>
            <path d="M54 42L78 42L114 6L150 6" stroke-width="2" stroke="#3a7cc3"></path>
            <path d="M51 42 a3 3 0 1 0 6 0 a3 3 0 1 0 -6 0zM147 6 a3 3 0 1 0 6 0 a3 3 0 1 0 -6 0z" fill="#3a7cc3"></path>
            <path d="M270 186L234 186L198 150L42 150" stroke-width="2" stroke="#3a7cc3"></path>
            <path d="M267 186 a3 3 0 1 0 6 0 a3 3 0 1 0 -6 0zM39 150 a3 3 0 1 0 6 0 a3 3 0 1 0 -6 0z" fill="#3a7cc3"></path>
            <path d="M270 102L282 114L282 186" stroke-width="2" stroke="#3a7cc3"></path>
            <path d="M267 102 a3 3 0 1 0 6 0 a3 3 0 1 0 -6 0zM279 186 a3 3 0 1 0 6 0 a3 3 0 1 0 -6 0z" fill="#3a7cc3"></path>
            <path d="M42 162L42 186" stroke-width="2" stroke="#3a7cc3"></path>
            <path d="M39 162 a3 3 0 1 0 6 0 a3 3 0 1 0 -6 0zM39 186 a3 3 0 1 0 6 0 a3 3 0 1 0 -6 0z" fill="#3a7cc3"></path>
            <path d="M210 42L162 42L90 114L90 138" stroke-width="2" stroke="#3a7cc3"></path>
            <path d="M207 42 a3 3 0 1 0 6 0 a3 3 0 1 0 -6 0zM87 138 a3 3 0 1 0 6 0 a3 3 0 1 0 -6 0z" fill="#3a7cc3"></path>
            <path d="M222 150L246 174L270 174" stroke-width="2" stroke="#3a7cc3"></path>
            <path d="M219 150 a3 3 0 1 0 6 0 a3 3 0 1 0 -6 0zM267 174 a3 3 0 1 0 6 0 a3 3 0 1 0 -6 0z" fill="#3a7cc3"></path>
            <path d="M246 6L174 6" stroke-width="2" stroke="#3a7cc3"></path>
            <path d="M243 6 a3 3 0 1 0 6 0 a3 3 0 1 0 -6 0zM171 6 a3 3 0 1 0 6 0 a3 3 0 1 0 -6 0z" fill="#3a7cc3"></path>
            <path d="M90 6L90 18L78 30L6 30" stroke-width="2" stroke="#3a7cc3"></path>
            <path d="M87 6 a3 3 0 1 0 6 0 a3 3 0 1 0 -6 0zM3 30 a3 3 0 1 0 6 0 a3 3 0 1 0 -6 0z" fill="#3a7cc3"></path>
            <path d="M258 102L258 66L210 18L174 18" stroke-width="2" stroke="#3a7cc3"></path>
            <path d="M255 102 a3 3 0 1 0 6 0 a3 3 0 1 0 -6 0zM171 18 a3 3 0 1 0 6 0 a3 3 0 1 0 -6 0z" fill="#3a7cc3"></path>
            <path d="M30 18L42 6L78 6" stroke-width="2" stroke="#3a7cc3"></path>
            <path d="M27 18 a3 3 0 1 0 6 0 a3 3 0 1 0 -6 0zM75 6 a3 3 0 1 0 6 0 a3 3 0 1 0 -6 0z" fill="#3a7cc3"></path>
            <path d="M18 186L18 150L102 66L102 54L114 42L114 18" stroke-width="2" stroke="#3a7cc3"></path>
            <path d="M15 186 a3 3 0 1 0 6 0 a3 3 0 1 0 -6 0zM111 18 a3 3 0 1 0 6 0 a3 3 0 1 0 -6 0z" fill="#3a7cc3"></path>
            <path d="M294 66L246 18L222 18" stroke-width="2" stroke="#3a7cc3"></path>
            <path d="M291 66 a3 3 0 1 0 6 0 a3 3 0 1 0 -6 0zM219 18 a3 3 0 1 0 6 0 a3 3 0 1 0 -6 0z" fill="#3a7cc3"></path>
            <path d="M66 18L42 18" stroke-width="2" stroke="#3a7cc3"></path>
            <path d="M63 18 a3 3 0 1 0 6 0 a3 3 0 1 0 -6 0zM39 18 a3 3 0 1 0 6 0 a3 3 0 1 0 -6 0z" fill="#3a7cc3"></path>
            <path d="M150 102L114 102L102 114L102 138" stroke-width="2" stroke="#3a7cc3"></path>
            <path d="M147 102 a3 3 0 1 0 6 0 a3 3 0 1 0 -6 0zM99 138 a3 3 0 1 0 6 0 a3 3 0 1 0 -6 0z" fill="#3a7cc3"></path>
            <path d="M210 114L246 78L246 66L222 42" stroke-width="2" stroke="#3a7cc3"></path>
            <path d="M207 114 a3 3 0 1 0 6 0 a3 3 0 1 0 -6 0zM219 42 a3 3 0 1 0 6 0 a3 3 0 1 0 -6 0z" fill="#3a7cc3"></path>
            <path d="M102 174L114 186L222 186" stroke-width="2" stroke="#3a7cc3"></path>
            <path d="M99 174 a3 3 0 1 0 6 0 a3 3 0 1 0 -6 0zM219 186 a3 3 0 1 0 6 0 a3 3 0 1 0 -6 0z" fill="#3a7cc3"></path>
            <path d="M234 78L234 66L222 54L162 54L126 90" stroke-width="2" stroke="#3a7cc3"></path>
            <path d="M231 78 a3 3 0 1 0 6 0 a3 3 0 1 0 -6 0zM123 90 a3 3 0 1 0 6 0 a3 3 0 1 0 -6 0z" fill="#3a7cc3"></path>
            <path d="M186 126L234 126L246 114L246 90" stroke-width="2" stroke="#3a7cc3"></path>
            <path d="M183 126 a3 3 0 1 0 6 0 a3 3 0 1 0 -6 0zM243 90 a3 3 0 1 0 6 0 a3 3 0 1 0 -6 0z" fill="#3a7cc3"></path>
            <path d="M246 126L270 150L270 162" stroke-width="2" stroke="#3a7cc3"></path>
            <path d="M243 126 a3 3 0 1 0 6 0 a3 3 0 1 0 -6 0zM267 162 a3 3 0 1 0 6 0 a3 3 0 1 0 -6 0z" fill="#3a7cc3"></path>
            <path d="M114 54L114 78L54 138L42 138" stroke-width="2" stroke="#3a7cc3"></path>
            <path d="M111 54 a3 3 0 1 0 6 0 a3 3 0 1 0 -6 0zM39 138 a3 3 0 1 0 6 0 a3 3 0 1 0 -6 0z" fill="#3a7cc3"></path>
            <path d="M42 42L54 54L54 102L6 150L6 186" stroke-width="2" stroke="#3a7cc3"></path>
            <path d="M39 42 a3 3 0 1 0 6 0 a3 3 0 1 0 -6 0zM3 186 a3 3 0 1 0 6 0 a3 3 0 1 0 -6 0z" fill="#3a7cc3"></path>
            <path d="M6 42L42 78L42 102L6 138" stroke-width="2" stroke="#3a7cc3"></path>
            <path d="M3 42 a3 3 0 1 0 6 0 a3 3 0 1 0 -6 0zM3 138 a3 3 0 1 0 6 0 a3 3 0 1 0 -6 0z" fill="#3a7cc3"></path>
            <path d="M78 78L78 54L102 30" stroke-width="2" stroke="#3a7cc3"></path>
            <path d="M75 78 a3 3 0 1 0 6 0 a3 3 0 1 0 -6 0zM99 30 a3 3 0 1 0 6 0 a3 3 0 1 0 -6 0z" fill="#3a7cc3"></path>
            <path d="M174 90L174 138" stroke-width="2" stroke="#3a7cc3"></path>
            <path d="M171 90 a3 3 0 1 0 6 0 a3 3 0 1 0 -6 0zM171 138 a3 3 0 1 0 6 0 a3 3 0 1 0 -6 0z" fill="#3a7cc3"></path>
            <path d="M90 174L78 162L54 162" stroke-width="2" stroke="#3a7cc3"></path>
            <path d="M87 174 a3 3 0 1 0 6 0 a3 3 0 1 0 -6 0zM51 162 a3 3 0 1 0 6 0 a3 3 0 1 0 -6 0z" fill="#3a7cc3"></path>
            <path d="M306 78L306 90L294 102L282 102L270 90L270 54L246 30L234 30" stroke-width="2" stroke="#3a7cc3"></path>
            <path d="M303 78 a3 3 0 1 0 6 0 a3 3 0 1 0 -6 0zM231 30 a3 3 0 1 0 6 0 a3 3 0 1 0 -6 0z" fill="#3a7cc3"></path>
            <path d="M126 162L162 162L174 174L210 174" stroke-width="2" stroke="#3a7cc3"></path>
            <path d="M123 162 a3 3 0 1 0 6 0 a3 3 0 1 0 -6 0zM207 174 a3 3 0 1 0 6 0 a3 3 0 1 0 -6 0z" fill="#3a7cc3"></path>
            <path d="M306 174L306 150L294 138" stroke-width="2" stroke="#3a7cc3"></path>
            <path d="M303 174 a3 3 0 1 0 6 0 a3 3 0 1 0 -6 0zM291 138 a3 3 0 1 0 6 0 a3 3 0 1 0 -6 0z" fill="#3a7cc3"></path>
            <path d="M186 78L150 78L138 90" stroke-width="2" stroke="#3a7cc3"></path>
            <path d="M183 78 a3 3 0 1 0 6 0 a3 3 0 1 0 -6 0zM135 90 a3 3 0 1 0 6 0 a3 3 0 1 0 -6 0z" fill="#3a7cc3"></path>
            <path d="M282 66L282 90" stroke-width="2" stroke="#3a7cc3"></path>
            <path d="M279 66 a3 3 0 1 0 6 0 a3 3 0 1 0 -6 0zM279 90 a3 3 0 1 0 6 0 a3 3 0 1 0 -6 0z" fill="#3a7cc3"></path>
            <path d="M138 138L150 138L162 126L162 90" stroke-width="2" stroke="#3a7cc3"></path>
            <path d="M135 138 a3 3 0 1 0 6 0 a3 3 0 1 0 -6 0zM159 90 a3 3 0 1 0 6 0 a3 3 0 1 0 -6 0z" fill="#3a7cc3"></path>
            <path d="M198 30L174 30" stroke-width="2" stroke="#3a7cc3"></path>
            <path d="M195 30 a3 3 0 1 0 6 0 a3 3 0 1 0 -6 0zM171 30 a3 3 0 1 0 6 0 a3 3 0 1 0 -6 0z" fill="#3a7cc3"></path>
            <path d="M126 138L150 114" stroke-width="2" stroke="#3a7cc3"></path>
            <path d="M123 138 a3 3 0 1 0 6 0 a3 3 0 1 0 -6 0zM147 114 a3 3 0 1 0 6 0 a3 3 0 1 0 -6 0z" fill="#3a7cc3"></path>
            <path d="M18 114L6 102L6 54" stroke-width="2" stroke="#3a7cc3"></path>
            <path d="M15 114 a3 3 0 1 0 6 0 a3 3 0 1 0 -6 0zM3 54 a3 3 0 1 0 6 0 a3 3 0 1 0 -6 0z" fill="#3a7cc3"></path>
            <path d="M162 66L222 66" stroke-width="2" stroke="#3a7cc3"></path>
            <path d="M159 66 a3 3 0 1 0 6 0 a3 3 0 1 0 -6 0zM219 66 a3 3 0 1 0 6 0 a3 3 0 1 0 -6 0z" fill="#3a7cc3"></path>
            <path d="M30 174L30 150" stroke-width="2" stroke="#3a7cc3"></path>
            <path d="M27 174 a3 3 0 1 0 6 0 a3 3 0 1 0 -6 0zM27 150 a3 3 0 1 0 6 0 a3 3 0 1 0 -6 0z" fill="#3a7cc3"></path>
            <path d="M198 78L222 78" stroke-width="2" stroke="#3a7cc3"></path>
            <path d="M195 78 a3 3 0 1 0 6 0 a3 3 0 1 0 -6 0zM219 78 a3 3 0 1 0 6 0 a3 3 0 1 0 -6 0z" fill="#3a7cc3"></path>
            <path d="M30 90L18 78L18 66" stroke-width="2" stroke="#3a7cc3"></path>
            <path d="M27 90 a3 3 0 1 0 6 0 a3 3 0 1 0 -6 0zM15 66 a3 3 0 1 0 6 0 a3 3 0 1 0 -6 0z" fill="#3a7cc3"></path>
            <path d="M42 66L42 54L30 42L18 42" stroke-width="2" stroke="#3a7cc3"></path>
            <path d="M39 66 a3 3 0 1 0 6 0 a3 3 0 1 0 -6 0zM15 42 a3 3 0 1 0 6 0 a3 3 0 1 0 -6 0z" fill="#3a7cc3"></path>
            <path d="M246 150L234 150L222 138L198 138" stroke-width="2" stroke="#3a7cc3"></path>
            <path d="M243 150 a3 3 0 1 0 6 0 a3 3 0 1 0 -6 0zM195 138 a3 3 0 1 0 6 0 a3 3 0 1 0 -6 0z" fill="#3a7cc3"></path>
            <path d="M138 174L162 174" stroke-width="2" stroke="#3a7cc3"></path>
            <path d="M135 174 a3 3 0 1 0 6 0 a3 3 0 1 0 -6 0zM159 174 a3 3 0 1 0 6 0 a3 3 0 1 0 -6 0z" fill="#3a7cc3"></path>
        </g>
    </g>
    <defs>
        <mask id="SvgjsMask1031">
            <rect width="320" height="185" fill="#ffffff"></rect>
        </mask>
        <mask id="SvgjsMask1032">
            <rect width="320" height="185" fill="white"></rect>
            <path d="M316.5 42 a1.5 1.5 0 1 0 3 0 a1.5 1.5 0 1 0 -3 0zM316.5 6 a1.5 1.5 0 1 0 3 0 a1.5 1.5 0 1 0 -3 0z" fill="black"></path>
            <path d="M268.5 30 a1.5 1.5 0 1 0 3 0 a1.5 1.5 0 1 0 -3 0zM304.5 30 a1.5 1.5 0 1 0 3 0 a1.5 1.5 0 1 0 -3 0z" fill="black"></path>
            <path d="M304.5 186 a1.5 1.5 0 1 0 3 0 a1.5 1.5 0 1 0 -3 0zM292.5 42 a1.5 1.5 0 1 0 3 0 a1.5 1.5 0 1 0 -3 0z" fill="black"></path>
            <path d="M136.5 54 a1.5 1.5 0 1 0 3 0 a1.5 1.5 0 1 0 -3 0zM160.5 6 a1.5 1.5 0 1 0 3 0 a1.5 1.5 0 1 0 -3 0z" fill="black"></path>
            <path d="M52.5 42 a1.5 1.5 0 1 0 3 0 a1.5 1.5 0 1 0 -3 0zM148.5 6 a1.5 1.5 0 1 0 3 0 a1.5 1.5 0 1 0 -3 0z" fill="black"></path>
            <path d="M268.5 186 a1.5 1.5 0 1 0 3 0 a1.5 1.5 0 1 0 -3 0zM40.5 150 a1.5 1.5 0 1 0 3 0 a1.5 1.5 0 1 0 -3 0z" fill="black"></path>
            <path d="M268.5 102 a1.5 1.5 0 1 0 3 0 a1.5 1.5 0 1 0 -3 0zM280.5 186 a1.5 1.5 0 1 0 3 0 a1.5 1.5 0 1 0 -3 0z" fill="black"></path>
            <path d="M40.5 162 a1.5 1.5 0 1 0 3 0 a1.5 1.5 0 1 0 -3 0zM40.5 186 a1.5 1.5 0 1 0 3 0 a1.5 1.5 0 1 0 -3 0z" fill="black"></path>
            <path d="M208.5 42 a1.5 1.5 0 1 0 3 0 a1.5 1.5 0 1 0 -3 0zM88.5 138 a1.5 1.5 0 1 0 3 0 a1.5 1.5 0 1 0 -3 0z" fill="black"></path>
            <path d="M220.5 150 a1.5 1.5 0 1 0 3 0 a1.5 1.5 0 1 0 -3 0zM268.5 174 a1.5 1.5 0 1 0 3 0 a1.5 1.5 0 1 0 -3 0z" fill="black"></path>
            <path d="M244.5 6 a1.5 1.5 0 1 0 3 0 a1.5 1.5 0 1 0 -3 0zM172.5 6 a1.5 1.5 0 1 0 3 0 a1.5 1.5 0 1 0 -3 0z" fill="black"></path>
            <path d="M88.5 6 a1.5 1.5 0 1 0 3 0 a1.5 1.5 0 1 0 -3 0zM4.5 30 a1.5 1.5 0 1 0 3 0 a1.5 1.5 0 1 0 -3 0z" fill="black"></path>
            <path d="M256.5 102 a1.5 1.5 0 1 0 3 0 a1.5 1.5 0 1 0 -3 0zM172.5 18 a1.5 1.5 0 1 0 3 0 a1.5 1.5 0 1 0 -3 0z" fill="black"></path>
            <path d="M28.5 18 a1.5 1.5 0 1 0 3 0 a1.5 1.5 0 1 0 -3 0zM76.5 6 a1.5 1.5 0 1 0 3 0 a1.5 1.5 0 1 0 -3 0z" fill="black"></path>
            <path d="M16.5 186 a1.5 1.5 0 1 0 3 0 a1.5 1.5 0 1 0 -3 0zM112.5 18 a1.5 1.5 0 1 0 3 0 a1.5 1.5 0 1 0 -3 0z" fill="black"></path>
            <path d="M292.5 66 a1.5 1.5 0 1 0 3 0 a1.5 1.5 0 1 0 -3 0zM220.5 18 a1.5 1.5 0 1 0 3 0 a1.5 1.5 0 1 0 -3 0z" fill="black"></path>
            <path d="M64.5 18 a1.5 1.5 0 1 0 3 0 a1.5 1.5 0 1 0 -3 0zM40.5 18 a1.5 1.5 0 1 0 3 0 a1.5 1.5 0 1 0 -3 0z" fill="black"></path>
            <path d="M148.5 102 a1.5 1.5 0 1 0 3 0 a1.5 1.5 0 1 0 -3 0zM100.5 138 a1.5 1.5 0 1 0 3 0 a1.5 1.5 0 1 0 -3 0z" fill="black"></path>
            <path d="M208.5 114 a1.5 1.5 0 1 0 3 0 a1.5 1.5 0 1 0 -3 0zM220.5 42 a1.5 1.5 0 1 0 3 0 a1.5 1.5 0 1 0 -3 0z" fill="black"></path>
            <path d="M100.5 174 a1.5 1.5 0 1 0 3 0 a1.5 1.5 0 1 0 -3 0zM220.5 186 a1.5 1.5 0 1 0 3 0 a1.5 1.5 0 1 0 -3 0z" fill="black"></path>
            <path d="M232.5 78 a1.5 1.5 0 1 0 3 0 a1.5 1.5 0 1 0 -3 0zM124.5 90 a1.5 1.5 0 1 0 3 0 a1.5 1.5 0 1 0 -3 0z" fill="black"></path>
            <path d="M184.5 126 a1.5 1.5 0 1 0 3 0 a1.5 1.5 0 1 0 -3 0zM244.5 90 a1.5 1.5 0 1 0 3 0 a1.5 1.5 0 1 0 -3 0z" fill="black"></path>
            <path d="M244.5 126 a1.5 1.5 0 1 0 3 0 a1.5 1.5 0 1 0 -3 0zM268.5 162 a1.5 1.5 0 1 0 3 0 a1.5 1.5 0 1 0 -3 0z" fill="black"></path>
            <path d="M112.5 54 a1.5 1.5 0 1 0 3 0 a1.5 1.5 0 1 0 -3 0zM40.5 138 a1.5 1.5 0 1 0 3 0 a1.5 1.5 0 1 0 -3 0z" fill="black"></path>
            <path d="M40.5 42 a1.5 1.5 0 1 0 3 0 a1.5 1.5 0 1 0 -3 0zM4.5 186 a1.5 1.5 0 1 0 3 0 a1.5 1.5 0 1 0 -3 0z" fill="black"></path>
            <path d="M4.5 42 a1.5 1.5 0 1 0 3 0 a1.5 1.5 0 1 0 -3 0zM4.5 138 a1.5 1.5 0 1 0 3 0 a1.5 1.5 0 1 0 -3 0z" fill="black"></path>
            <path d="M76.5 78 a1.5 1.5 0 1 0 3 0 a1.5 1.5 0 1 0 -3 0zM100.5 30 a1.5 1.5 0 1 0 3 0 a1.5 1.5 0 1 0 -3 0z" fill="black"></path>
            <path d="M172.5 90 a1.5 1.5 0 1 0 3 0 a1.5 1.5 0 1 0 -3 0zM172.5 138 a1.5 1.5 0 1 0 3 0 a1.5 1.5 0 1 0 -3 0z" fill="black"></path>
            <path d="M88.5 174 a1.5 1.5 0 1 0 3 0 a1.5 1.5 0 1 0 -3 0zM52.5 162 a1.5 1.5 0 1 0 3 0 a1.5 1.5 0 1 0 -3 0z" fill="black"></path>
            <path d="M304.5 78 a1.5 1.5 0 1 0 3 0 a1.5 1.5 0 1 0 -3 0zM232.5 30 a1.5 1.5 0 1 0 3 0 a1.5 1.5 0 1 0 -3 0z" fill="black"></path>
            <path d="M124.5 162 a1.5 1.5 0 1 0 3 0 a1.5 1.5 0 1 0 -3 0zM208.5 174 a1.5 1.5 0 1 0 3 0 a1.5 1.5 0 1 0 -3 0z" fill="black"></path>
            <path d="M304.5 174 a1.5 1.5 0 1 0 3 0 a1.5 1.5 0 1 0 -3 0zM292.5 138 a1.5 1.5 0 1 0 3 0 a1.5 1.5 0 1 0 -3 0z" fill="black"></path>
            <path d="M184.5 78 a1.5 1.5 0 1 0 3 0 a1.5 1.5 0 1 0 -3 0zM136.5 90 a1.5 1.5 0 1 0 3 0 a1.5 1.5 0 1 0 -3 0z" fill="black"></path>
            <path d="M280.5 66 a1.5 1.5 0 1 0 3 0 a1.5 1.5 0 1 0 -3 0zM280.5 90 a1.5 1.5 0 1 0 3 0 a1.5 1.5 0 1 0 -3 0z" fill="black"></path>
            <path d="M136.5 138 a1.5 1.5 0 1 0 3 0 a1.5 1.5 0 1 0 -3 0zM160.5 90 a1.5 1.5 0 1 0 3 0 a1.5 1.5 0 1 0 -3 0z" fill="black"></path>
            <path d="M196.5 30 a1.5 1.5 0 1 0 3 0 a1.5 1.5 0 1 0 -3 0zM172.5 30 a1.5 1.5 0 1 0 3 0 a1.5 1.5 0 1 0 -3 0z" fill="black"></path>
            <path d="M124.5 138 a1.5 1.5 0 1 0 3 0 a1.5 1.5 0 1 0 -3 0zM148.5 114 a1.5 1.5 0 1 0 3 0 a1.5 1.5 0 1 0 -3 0z" fill="black"></path>
            <path d="M16.5 114 a1.5 1.5 0 1 0 3 0 a1.5 1.5 0 1 0 -3 0zM4.5 54 a1.5 1.5 0 1 0 3 0 a1.5 1.5 0 1 0 -3 0z" fill="black"></path>
            <path d="M160.5 66 a1.5 1.5 0 1 0 3 0 a1.5 1.5 0 1 0 -3 0zM220.5 66 a1.5 1.5 0 1 0 3 0 a1.5 1.5 0 1 0 -3 0z" fill="black"></path>
            <path d="M28.5 174 a1.5 1.5 0 1 0 3 0 a1.5 1.5 0 1 0 -3 0zM28.5 150 a1.5 1.5 0 1 0 3 0 a1.5 1.5 0 1 0 -3 0z" fill="black"></path>
            <path d="M196.5 78 a1.5 1.5 0 1 0 3 0 a1.5 1.5 0 1 0 -3 0zM220.5 78 a1.5 1.5 0 1 0 3 0 a1.5 1.5 0 1 0 -3 0z" fill="black"></path>
            <path d="M28.5 90 a1.5 1.5 0 1 0 3 0 a1.5 1.5 0 1 0 -3 0zM16.5 66 a1.5 1.5 0 1 0 3 0 a1.5 1.5 0 1 0 -3 0z" fill="black"></path>
            <path d="M40.5 66 a1.5 1.5 0 1 0 3 0 a1.5 1.5 0 1 0 -3 0zM16.5 42 a1.5 1.5 0 1 0 3 0 a1.5 1.5 0 1 0 -3 0z" fill="black"></path>
            <path d="M244.5 150 a1.5 1.5 0 1 0 3 0 a1.5 1.5 0 1 0 -3 0zM196.5 138 a1.5 1.5 0 1 0 3 0 a1.5 1.5 0 1 0 -3 0z" fill="black"></path>
            <path d="M136.5 174 a1.5 1.5 0 1 0 3 0 a1.5 1.5 0 1 0 -3 0zM160.5 174 a1.5 1.5 0 1 0 3 0 a1.5 1.5 0 1 0 -3 0z" fill="black"></path>
        </mask>
    </defs>
</svg>