<svg xmlns="http://www.w3.org/2000/svg" xmlns:xlink="http://www.w3.org/1999/xlink" viewBox="0 0 1200 1200"><defs><style>.cls-1{isolation:isolate;}.cls-2{fill:#e9e8e8;}.cls-3{fill:#9dd5c0;}.cls-4{fill:#1d252e;}.cls-19,.cls-5{fill:none;}.cls-18,.cls-19,.cls-20,.cls-5{stroke:#1d252e;stroke-width:3.16px;}.cls-19,.cls-20,.cls-5{stroke-linecap:round;}.cls-20,.cls-5{stroke-linejoin:round;}.cls-14,.cls-16,.cls-6{font-size:17.59px;font-family:Lato-Bold, Lato;font-weight:700;letter-spacing:0.1em;}.cls-6{fill:#f4908c;}.cls-7{letter-spacing:0.12em;}.cls-8{letter-spacing:0.05em;}.cls-9{letter-spacing:0.1em;}.cls-10{letter-spacing:0.12em;}.cls-11{letter-spacing:0.09em;}.cls-12{fill:#f2f2f2;}.cls-13,.cls-20{fill:#fff;}.cls-14,.cls-15,.cls-17{mix-blend-mode:soft-light;}.cls-15{fill:url(#linear-gradient);}.cls-18{fill:#a2ccd7;stroke-miterlimit:10;}</style><linearGradient id="linear-gradient" x1="726.17" y1="186.7" x2="726.17" y2="798.71" gradientUnits="userSpaceOnUse"><stop offset="0" stop-color="#c57db2"/><stop offset="1" stop-color="#56bc80"/></linearGradient></defs><g class="cls-1"><g id="Layer_1" data-name="Layer 1"><path id="Path-141" class="cls-2" d="M870.65,517.93C799.59,431.92,650.37,208.77,459,298S53.71,918.52,472.66,919.13c157.39.23,384.06,20.78,450.47-39.35C1033.5,779.87,915,571.62,870.65,517.93Z"/><path class="cls-3" d="M934.92,184.22H516.39A21.83,21.83,0,0,0,494.58,206V655a21.83,21.83,0,0,0,21.81,21.81H934.92A21.83,21.83,0,0,0,956.72,655V206A21.83,21.83,0,0,0,934.92,184.22Z"/><rect class="cls-4" x="494.58" y="654.59" width="462.14" height="22.17"/><path class="cls-5" d="M953.79,206V213H497.51V206a18.88,18.88,0,0,1,18.88-18.88H934.92A18.87,18.87,0,0,1,953.79,206Z"/><circle class="cls-4" cx="534.62" cy="200.05" r="3.73"/><circle class="cls-4" cx="523.97" cy="200.05" r="3.73"/><circle class="cls-4" cx="513.31" cy="200.05" r="3.73"/><text class="cls-6" transform="translate(677.29 254.59)">C<tspan class="cls-7" x="13.47" y="0">ON</tspan><tspan class="cls-8" x="45.46" y="0">T</tspan><tspan class="cls-9" x="56.89" y="0">A</tspan><tspan class="cls-10" x="70.84" y="0">C</tspan><tspan class="cls-11" x="84.58" y="0">T</tspan></text><rect class="cls-12" x="564.6" y="484.06" width="322.11" height="107.12"/><polyline class="cls-5" points="556.31 571.32 556.31 478.12 875.92 478.12"/><polyline class="cls-5" points="894.99 492.87 894.99 597.13 608.23 597.13"/><rect class="cls-12" x="564.6" y="396.6" width="322.11" height="40.56"/><polyline class="cls-5" points="556.31 428.81 556.31 388.87 875.92 388.87"/><polyline class="cls-5" points="894.99 388.87 894.99 445.11 556.31 445.11"/><rect class="cls-12" x="564.6" y="306" width="322.11" height="40.56"/><polyline class="cls-5" points="556.31 338.2 556.31 298.27 875.92 298.27"/><polyline class="cls-5" points="894.99 298.27 894.99 354.51 556.31 354.51"/><rect class="cls-13" x="679.55" y="617.12" width="92.47" height="24.71" rx="12.36"/><path class="cls-5" d="M745.15,641.83H691.91a12.36,12.36,0,0,1-12.36-12.36h0a12.35,12.35,0,0,1,12.36-12.35h5.22"/><path class="cls-5" d="M728.2,617.12h31.46A12.35,12.35,0,0,1,772,629.47h0a12.28,12.28,0,0,1-3.15,8.24"/><text class="cls-14" transform="translate(677.29 254.59)">C<tspan class="cls-7" x="13.47" y="0">ON</tspan><tspan class="cls-8" x="45.46" y="0">T</tspan><tspan class="cls-9" x="56.89" y="0">A</tspan><tspan class="cls-10" x="70.84" y="0">C</tspan><tspan class="cls-11" x="84.58" y="0">T</tspan></text><path class="cls-15" d="M501.45,192.77c.06-.18.12-.36.19-.53C501.57,192.41,501.51,192.59,501.45,192.77Zm444.87-6.08a17.54,17.54,0,0,0-1.54-1.57A17.54,17.54,0,0,1,946.32,186.69Zm-440.42-1,0,0Zm-4.43,460.73.17.45Zm449.42-6.17a18.45,18.45,0,0,1-2.7,9.63,19.65,19.65,0,0,1-1.56,2.18,18.75,18.75,0,0,1-2.52,2.52,18.75,18.75,0,0,0,2.52-2.52,19.65,19.65,0,0,0,1.56-2.18,18.45,18.45,0,0,0,2.7-9.63V205.66h0Zm0-441.4a18.32,18.32,0,0,0-1.47-7.23c-.23-.55-.5-1.1-.78-1.62.28.52.55,1.07.78,1.62a18.32,18.32,0,0,1,1.47,7.23Z"/><text class="cls-16" transform="translate(677.29 254.59)">C<tspan class="cls-7" x="13.47" y="0">ON</tspan><tspan class="cls-8" x="45.46" y="0">T</tspan><tspan class="cls-9" x="56.89" y="0">A</tspan><tspan class="cls-10" x="70.84" y="0">C</tspan><tspan class="cls-11" x="84.58" y="0">T</tspan></text><g class="cls-17"><path d="M687.44,251.59a.49.49,0,0,1,.35.15l.93,1a5.24,5.24,0,0,1-1.9,1.46,6.6,6.6,0,0,1-2.72.51,6.43,6.43,0,0,1-2.54-.48,5.53,5.53,0,0,1-1.93-1.34,5.86,5.86,0,0,1-1.23-2.06,7.62,7.62,0,0,1-.43-2.62,7.14,7.14,0,0,1,.46-2.62,5.91,5.91,0,0,1,3.27-3.4,6.77,6.77,0,0,1,2.55-.47,6.36,6.36,0,0,1,2.47.45,5.93,5.93,0,0,1,1.83,1.2l-.79,1.1a.77.77,0,0,1-.18.18.45.45,0,0,1-.3.08.61.61,0,0,1-.28-.07,2.86,2.86,0,0,1-.3-.19l-.39-.24a3,3,0,0,0-.51-.24,4.53,4.53,0,0,0-.67-.19,4.73,4.73,0,0,0-.89-.07,3.94,3.94,0,0,0-1.56.3,3.44,3.44,0,0,0-1.22.88,4.2,4.2,0,0,0-.79,1.41,5.82,5.82,0,0,0-.28,1.89,5.59,5.59,0,0,0,.3,1.91,4.24,4.24,0,0,0,.83,1.41,3.57,3.57,0,0,0,1.22.88,3.8,3.8,0,0,0,1.51.3,7.75,7.75,0,0,0,.88,0,3.8,3.8,0,0,0,.72-.17,3.23,3.23,0,0,0,.62-.3,3.76,3.76,0,0,0,.59-.44l.18-.13A.49.49,0,0,1,687.44,251.59Z"/><path d="M704.31,248.23a7,7,0,0,1-.46,2.59,6.12,6.12,0,0,1-1.3,2.07,6,6,0,0,1-2,1.36,7.45,7.45,0,0,1-5.26,0,5.9,5.9,0,0,1-3.35-3.43,6.82,6.82,0,0,1-.47-2.59,6.89,6.89,0,0,1,.47-2.59,5.92,5.92,0,0,1,3.35-3.42,6.92,6.92,0,0,1,2.63-.48,7.15,7.15,0,0,1,1.82.22,6.53,6.53,0,0,1,1.56.63,6,6,0,0,1,1.28,1,5.83,5.83,0,0,1,1,1.3,6.33,6.33,0,0,1,.61,1.57A7.28,7.28,0,0,1,704.31,248.23Zm-2.42,0a5.74,5.74,0,0,0-.28-1.87,3.74,3.74,0,0,0-.8-1.41,3.25,3.25,0,0,0-1.26-.89,4.21,4.21,0,0,0-1.67-.31,4.26,4.26,0,0,0-1.68.31,3.36,3.36,0,0,0-1.27.89,4,4,0,0,0-.8,1.41,6.42,6.42,0,0,0,0,3.75,4,4,0,0,0,.8,1.41,3.45,3.45,0,0,0,1.27.88,4.26,4.26,0,0,0,1.68.31,4.21,4.21,0,0,0,1.67-.31,3.34,3.34,0,0,0,1.26-.88,3.74,3.74,0,0,0,.8-1.41A5.76,5.76,0,0,0,701.89,248.23Z"/><path d="M719.23,241.88v12.71H718a1.06,1.06,0,0,1-.47-.09,1,1,0,0,1-.37-.31l-6.64-8.48a10.41,10.41,0,0,1,.05,1.07v7.81h-2.08V241.88H710l.19.05a.88.88,0,0,1,.17.12,1.72,1.72,0,0,1,.17.19l6.67,8.52c0-.21,0-.41-.05-.61s0-.38,0-.55v-7.73Z"/><path d="M733.06,243.82h-3.84v10.77h-2.36V243.82H723v-1.94h10Z"/><path d="M746.5,254.59h-1.83a.81.81,0,0,1-.51-.15,1.1,1.1,0,0,1-.29-.38l-1-2.6h-5.26l-.95,2.6a.87.87,0,0,1-.28.37.75.75,0,0,1-.5.16h-1.84l5-12.71h2.41Zm-4.18-4.8-1.55-4.23c-.08-.19-.16-.41-.24-.67s-.16-.53-.24-.83q-.12.45-.24.84c-.08.26-.16.49-.24.68l-1.54,4.21Z"/><path d="M758.28,251.59a.46.46,0,0,1,.34.15l.94,1a5.19,5.19,0,0,1-1.91,1.46,7.23,7.23,0,0,1-5.26,0,5.72,5.72,0,0,1-1.93-1.34,6,6,0,0,1-1.22-2.06,7.62,7.62,0,0,1-.43-2.62,7.14,7.14,0,0,1,.46-2.62,5.83,5.83,0,0,1,3.27-3.4,6.77,6.77,0,0,1,2.55-.47,6.4,6.4,0,0,1,2.47.45,6.18,6.18,0,0,1,1.83,1.2l-.79,1.1a.77.77,0,0,1-.18.18.49.49,0,0,1-.31.08.57.57,0,0,1-.27-.07,2.9,2.9,0,0,1-.31-.19l-.38-.24a3,3,0,0,0-.51-.24,4.68,4.68,0,0,0-.68-.19,4.61,4.61,0,0,0-.88-.07,3.94,3.94,0,0,0-1.56.3,3.44,3.44,0,0,0-1.22.88,4.2,4.2,0,0,0-.79,1.41,5.82,5.82,0,0,0-.28,1.89,5.59,5.59,0,0,0,.3,1.91,4.23,4.23,0,0,0,.82,1.41,3.7,3.7,0,0,0,1.23.88,3.77,3.77,0,0,0,1.51.3,7.57,7.57,0,0,0,.87,0,3.8,3.8,0,0,0,.72-.17,3.64,3.64,0,0,0,.63-.3,3.29,3.29,0,0,0,.58-.44l.19-.13A.46.46,0,0,1,758.28,251.59Z"/><path d="M772.18,243.82h-3.84v10.77H766V243.82h-3.84v-1.94h10Z"/></g><line class="cls-18" x1="556.31" y1="283.31" x2="648.25" y2="283.31"/><line class="cls-18" x1="556.31" y1="374.35" x2="648.25" y2="374.35"/><line class="cls-18" x1="556.31" y1="464.95" x2="648.25" y2="464.95"/><path class="cls-3" d="M359.29,841.35q-3.18.78-6.49,1.28a72.55,72.55,0,0,1-37.22-3.88,70.55,70.55,0,0,1-43.42-49.84L244.65,672.58a50.78,50.78,0,0,1-1.32-9.47,54.38,54.38,0,0,1,6.46-27.8c9.59-18.2,28.9-32.37,52-35.92,2.17-.33,4.34-.57,6.49-.7,27.17-1.72,52.21,12.1,61.19,35.31l42.16,109C427.51,784,403.31,830.73,359.29,841.35Z"/><path class="cls-13" d="M463,979.67H406.34v-119H384.5v119H329.74a14.16,14.16,0,0,0-14.16,14.16H477.11A14.16,14.16,0,0,0,463,979.67Z"/><circle class="cls-4" cx="463.73" cy="1002.4" r="13.38"/><circle class="cls-4" cx="328.96" cy="1002.4" r="13.38"/><rect class="cls-4" x="381.57" y="850.88" width="29.55" height="26.42"/><path class="cls-19" d="M477.11,993.83A14.16,14.16,0,0,0,463,979.67H406.34V885"/><line class="cls-19" x1="344.54" y1="993.83" x2="448.82" y2="993.83"/><path class="cls-19" d="M384.5,883.57v96.1H329.74a14.16,14.16,0,0,0-14.16,14.16"/><path class="cls-4" d="M489,860.36c20.11-12,14.3-27,3.25-34.38s-84-11.32-106.13-8.93-99.81,5.84-79.38,41.47C321.07,883.46,468.92,872.32,489,860.36Z"/><path id="Path-32" class="cls-13" d="M578.52,952c1.86,2,17.8,24.22,20,23.07s56.66-43.79,45.84-42.82-43.82,5.34-47.56,1.34l-9.52-13.16-26.83,11.8S577.28,950.63,578.52,952Z"/><path id="Path-32-2" data-name="Path-32" class="cls-5" d="M570.27,943.12l8.25,8.84c1.86,2,17.8,24.22,20,23.07s56.66-43.79,45.84-42.82-43.82,5.34-47.56,1.34"/><path id="Path-33" class="cls-13" d="M650,916l34.51-50.78a1.78,1.78,0,0,0-2.17-2.59q-46.55,18.3-50.11,16.11l-16.46-9-14.83,18.2S644.06,912.8,650,916Z"/><path id="Path-33-2" data-name="Path-33" class="cls-5" d="M609.08,892.19c15.55,8.18,35,20.61,40.92,23.8l34.51-50.78a1.78,1.78,0,0,0-2.17-2.59q-46.55,18.3-50.11,16.11"/><path class="cls-3" d="M589.29,899.14l-69.91-74.41,75.23,88.63c5,10.42-36.81,31-39.85,25.34l-77.65-93.78c-7.95-5.81-120.63-7.52-131.79-32.13s-8.85-44.45-8.85-44.45l92.73-23,105.15,36.82,91.84,82C632,874.05,592.8,904.56,589.29,899.14Z"/><polygon id="Path-36" class="cls-13" points="346.83 625.46 358.27 620.71 358.27 596.58 353.39 591.95 350.63 584.75 344.91 584.75 341.5 579.73 342.44 573.89 344.03 572.01 340.62 562.38 378 555.61 380.33 556.61 386.36 565.86 390.2 576.65 388.84 586.35 385.13 592.61 379.36 597.28 377.02 597.28 377.33 619.55 393.57 617.15 380.33 635.75 348.07 639.92 346.83 625.46"/><path id="Path-20" class="cls-5" d="M351.31,623.27l7-1.59s-.37-16.22,0-25.1a19.81,19.81,0,0,1-4.88-4.63,28.82,28.82,0,0,1-2.71-7.17q-9.18.74-9.18-6.75t8.38-6.66"/><path id="Path-21" class="cls-5" d="M383.39,561.82q7.42,10,6.75,17.58-2.31,15.42-13.81,18.51l1,21.64,8.17-1.28"/><path id="Path-22" class="cls-5" d="M343,569.05a12.51,12.51,0,0,1,7.64-1.58"/><path id="Path-23" class="cls-4" d="M341.5,566.5a25.78,25.78,0,0,1,10.33-2.71c.26-1.32.59-2.79,1-4.43q9.59,10,27.65-2c18.06-11.94-5-42.76-23-28.94q-9.69,7.66-10.68,12.44-7.83,1.14-9.25,5.69Q334.47,552.8,341.5,566.5Z"/><path class="cls-4" d="M324.45,832.58l-8.87,6.17a70.55,70.55,0,0,1-43.42-49.84L244.65,672.58a50.78,50.78,0,0,1-1.32-9.47,54.38,54.38,0,0,1,6.46-27.8s32,135.5,40.29,161.73C295.17,813.21,324.45,832.58,324.45,832.58Z"/><path class="cls-13" d="M455.13,612.59s-7.34-.33-16.3-.39c4.59,6.13,7,23.93,6.91,25.17,6.8-1.9,13.36-3.71,18-5h0c4.17-1.16,6.86-1.89,6.86-1.89C478.91,619.51,472,612.56,455.13,612.59Z"/><path class="cls-5" d="M470.66,630.48s-2.69.73-6.86,1.89h0l-7.84,2.16"/><path id="Path-24" class="cls-4" d="M347.63,625.16Q359.19,637,372,633c12.82-3.94,16.45-8,18-14.78,12.08-4.93,23.83-15.29,51.69-10.09,2.54,14.34,16.19,32.55,15.69,55.42L431.64,675c2.94,18.78,14.69,59.31,12.43,67.81s-23.18,20-47.39,23.53-36.73,11.92-59.15,4.2c0,0-39.49-80.85-31.81-125C308.93,627,340.09,628.73,347.63,625.16Z"/><path class="cls-19" d="M339.32,777.24s13.83,32.7,27.78,41.66C384.5,830.06,441.73,833,441.73,833"/><path class="cls-5" d="M467.66,837.15s11.36.09,16.58,3.88c6,4.37,20.36,28.14,20.36,28.14"/><path class="cls-13" d="M436,767.18l-.91,5.3-.86,5-.73,4.24L404,777.21l-67.3-24.78-17.43-37.79-.57-1.3c-5.06-11.89-8-22,.87-29.43a19.41,19.41,0,0,1,12.8-4.56,21.38,21.38,0,0,1,17.4,9.49L355.34,709l9,26.27,40.95,18.27h0l8.65,3.86,4.23,1.88,6.27,2.8,10.54,4.7Z"/><polyline class="cls-5" points="422.4 761.13 424.48 762.05 435.02 766.75 435.97 767.18 435.06 772.48 434.2 777.44 433.48 781.68 403.95 777.21 385.77 770.52"/><polygon class="cls-13" points="549.44 773.74 425.57 777.86 424.63 784.5 549.14 778.91 549.44 773.74"/><path class="cls-13" d="M548.87,778.93l-.43,4.44-149.11,7.44a2,2,0,0,1-2.07-1.82l-.15-1.79a1.42,1.42,0,0,1,1.34-1.55l23.95-1.23"/><line class="cls-13" x1="422.4" y1="784.42" x2="549.94" y2="777.86"/><path class="cls-19" d="M548.87,777.86l-.53,5.2-149,7.75a2,2,0,0,1-2.07-1.82l-.15-1.79a1.42,1.42,0,0,1,1.34-1.55l23.95-1.23"/><path class="cls-3" d="M557.1,699.33l-7.23,75.92v.38L425,782.06c0-.13,0-.25,0-.38l7.21-75.92A7.25,7.25,0,0,1,433,703a8.07,8.07,0,0,1,2-2.5,9,9,0,0,1,1-.67,7.24,7.24,0,0,1,3.39-1.06L551,693.05a5.66,5.66,0,0,1,6.09,6.28"/><path class="cls-13" d="M482.63,737.5a9.77,9.77,0,0,0,10.51,10.84,13.44,13.44,0,0,0,12.36-12A9.77,9.77,0,0,0,495,725.49a13.44,13.44,0,0,0-12.36,12"/><path class="cls-19" d="M502.33,726.7a11,11,0,0,0-7.27-2.13,14.52,14.52,0,0,0-13.35,13"/><path class="cls-19" d="M497.21,748.36a14.62,14.62,0,0,0,9.21-12.08,11.29,11.29,0,0,0-1.06-5.89"/><path class="cls-19" d="M481.71,737.55a10.49,10.49,0,0,0,7.73,11.34"/><path class="cls-19" d="M430.11,781.93l6.52-72a7.14,7.14,0,0,1,6.55-6.42l36.67-1.63"/><path class="cls-4" d="M340.69,667.43c-10.77,2.44-32.38,7-32.38,7l3.52,23.94s33.08,8.16,50.18,6.13Z"/><path class="cls-20" d="M453.27,625.11,464.82,630c12.91,6.52,17.29-20,4.38-26.56l-56.13-12.56c-2.95-9.15-36.25-12.14-37.22-2.26a6.08,6.08,0,0,0-.15.87,11.58,11.58,0,0,0,8.79,12.72l15.64,3.59a10.52,10.52,0,0,0,5.64-.23c.24-.08.47-.16.69-.25l3.38,1.43"/><polyline class="cls-5" points="522.94 827.69 500.79 802.13 459.95 793.11"/></g></g></svg>