<svg xmlns="http://www.w3.org/2000/svg" version="1.1" xmlnsXlink="http://www.w3.org/1999/xlink" xmlnSvgjs="http://svgjs.com/svgjs" width="350" height="200" preserveAspectRatio="none" viewBox="0 0 350 200">
    <g mask="url(&quot;#SvgjsMask1104&quot;)" fill="none">
        <rect width="350" height="200" x="0" y="0" fill="#0e2a47"></rect>
        <path d="M0 -59L51.1 -29.5L51.1 29.5L0 59L-51.1 29.5L-51.1 -29.5zM51.1 29.5L102.19 59L102.19 118L51.1 147.5L0 118L0 59zM0 118L51.1 147.5L51.1 206.5L0 236L-51.1 206.5L-51.1 147.5zM102.19 -59L153.29 -29.5L153.29 29.5L102.19 59L51.1 29.5L51.1 -29.5zM153.29 29.5L204.39 59L204.39 118L153.29 147.5L102.19 118L102.19 59zM102.19 118L153.29 147.5L153.29 206.5L102.19 236L51.1 206.5L51.1 147.5zM204.39 -59L255.48 -29.5L255.48 29.5L204.39 59L153.29 29.5L153.29 -29.5zM255.48 29.5L306.58 59L306.58 118L255.48 147.5L204.39 118L204.39 59zM204.39 118L255.48 147.5L255.48 206.5L204.39 236L153.29 206.5L153.29 147.5zM306.58 -59L357.68 -29.5L357.68 29.5L306.58 59L255.48 29.5L255.48 -29.5zM357.68 29.5L408.78 59L408.78 118L357.68 147.5L306.58 118L306.58 59zM306.58 118L357.68 147.5L357.68 206.5L306.58 236L255.48 206.5L255.48 147.5z" stroke="#03305d" stroke-width="2"></path>
        <path d="M-5.9 -59 a5.9 5.9 0 1 0 11.8 0 a5.9 5.9 0 1 0 -11.8 0zM45.2 -29.5 a5.9 5.9 0 1 0 11.8 0 a5.9 5.9 0 1 0 -11.8 0zM45.2 29.5 a5.9 5.9 0 1 0 11.8 0 a5.9 5.9 0 1 0 -11.8 0zM-5.9 59 a5.9 5.9 0 1 0 11.8 0 a5.9 5.9 0 1 0 -11.8 0zM-57 29.5 a5.9 5.9 0 1 0 11.8 0 a5.9 5.9 0 1 0 -11.8 0zM-57 -29.5 a5.9 5.9 0 1 0 11.8 0 a5.9 5.9 0 1 0 -11.8 0zM96.29 59 a5.9 5.9 0 1 0 11.8 0 a5.9 5.9 0 1 0 -11.8 0zM96.29 118 a5.9 5.9 0 1 0 11.8 0 a5.9 5.9 0 1 0 -11.8 0zM45.2 147.5 a5.9 5.9 0 1 0 11.8 0 a5.9 5.9 0 1 0 -11.8 0zM-5.9 118 a5.9 5.9 0 1 0 11.8 0 a5.9 5.9 0 1 0 -11.8 0zM45.2 206.5 a5.9 5.9 0 1 0 11.8 0 a5.9 5.9 0 1 0 -11.8 0zM-5.9 236 a5.9 5.9 0 1 0 11.8 0 a5.9 5.9 0 1 0 -11.8 0zM-57 206.5 a5.9 5.9 0 1 0 11.8 0 a5.9 5.9 0 1 0 -11.8 0zM-57 147.5 a5.9 5.9 0 1 0 11.8 0 a5.9 5.9 0 1 0 -11.8 0zM96.29 -59 a5.9 5.9 0 1 0 11.8 0 a5.9 5.9 0 1 0 -11.8 0zM147.39 -29.5 a5.9 5.9 0 1 0 11.8 0 a5.9 5.9 0 1 0 -11.8 0zM147.39 29.5 a5.9 5.9 0 1 0 11.8 0 a5.9 5.9 0 1 0 -11.8 0zM198.49 59 a5.9 5.9 0 1 0 11.8 0 a5.9 5.9 0 1 0 -11.8 0zM198.49 118 a5.9 5.9 0 1 0 11.8 0 a5.9 5.9 0 1 0 -11.8 0zM147.39 147.5 a5.9 5.9 0 1 0 11.8 0 a5.9 5.9 0 1 0 -11.8 0zM147.39 206.5 a5.9 5.9 0 1 0 11.8 0 a5.9 5.9 0 1 0 -11.8 0zM96.29 236 a5.9 5.9 0 1 0 11.8 0 a5.9 5.9 0 1 0 -11.8 0zM198.49 -59 a5.9 5.9 0 1 0 11.8 0 a5.9 5.9 0 1 0 -11.8 0zM249.58 -29.5 a5.9 5.9 0 1 0 11.8 0 a5.9 5.9 0 1 0 -11.8 0zM249.58 29.5 a5.9 5.9 0 1 0 11.8 0 a5.9 5.9 0 1 0 -11.8 0zM300.68 59 a5.9 5.9 0 1 0 11.8 0 a5.9 5.9 0 1 0 -11.8 0zM300.68 118 a5.9 5.9 0 1 0 11.8 0 a5.9 5.9 0 1 0 -11.8 0zM249.58 147.5 a5.9 5.9 0 1 0 11.8 0 a5.9 5.9 0 1 0 -11.8 0zM249.58 206.5 a5.9 5.9 0 1 0 11.8 0 a5.9 5.9 0 1 0 -11.8 0zM198.49 236 a5.9 5.9 0 1 0 11.8 0 a5.9 5.9 0 1 0 -11.8 0zM300.68 -59 a5.9 5.9 0 1 0 11.8 0 a5.9 5.9 0 1 0 -11.8 0zM351.78 -29.5 a5.9 5.9 0 1 0 11.8 0 a5.9 5.9 0 1 0 -11.8 0zM351.78 29.5 a5.9 5.9 0 1 0 11.8 0 a5.9 5.9 0 1 0 -11.8 0zM402.88 59 a5.9 5.9 0 1 0 11.8 0 a5.9 5.9 0 1 0 -11.8 0zM402.88 118 a5.9 5.9 0 1 0 11.8 0 a5.9 5.9 0 1 0 -11.8 0zM351.78 147.5 a5.9 5.9 0 1 0 11.8 0 a5.9 5.9 0 1 0 -11.8 0zM351.78 206.5 a5.9 5.9 0 1 0 11.8 0 a5.9 5.9 0 1 0 -11.8 0zM300.68 236 a5.9 5.9 0 1 0 11.8 0 a5.9 5.9 0 1 0 -11.8 0z" fill="#03305d"></path>
        <path d="M10.55 -3.87L27.87 6.13L27.87 26.13L10.55 36.13L-6.77 26.13L-6.77 6.13zM45.19 -3.87L62.51 6.13L62.51 26.13L45.19 36.13L27.87 26.13L27.87 6.13zM45.19 116.13L62.51 126.13L62.51 146.13L45.19 156.13L27.87 146.13L27.87 126.13zM79.83 56.13L97.15 66.13L97.15 86.13L79.83 96.13L62.51 86.13L62.51 66.13zM114.48 -3.87L131.8 6.13L131.8 26.13L114.48 36.13L97.15 26.13L97.15 6.13zM131.8 206.13L149.12 216.13L149.12 236.13L131.8 246.13L114.48 236.13L114.48 216.13zM166.44 26.13L183.76 36.13L183.76 56.13L166.44 66.13L149.12 56.13L149.12 36.13zM149.12 56.13L166.44 66.13L166.44 86.13L149.12 96.13L131.8 86.13L131.8 66.13zM149.12 116.13L166.44 126.13L166.44 146.13L149.12 156.13L131.8 146.13L131.8 126.13zM149.12 176.13L166.44 186.13L166.44 206.13L149.12 216.13L131.8 206.13L131.8 186.13zM183.76 -3.87L201.08 6.13L201.08 26.13L183.76 36.13L166.44 26.13L166.44 6.13zM201.08 86.13L218.4 96.13L218.4 116.13L201.08 126.13L183.76 116.13L183.76 96.13zM201.08 146.13L218.4 156.13L218.4 176.13L201.08 186.13L183.76 176.13L183.76 156.13zM235.72 206.13L253.04 216.13L253.04 236.13L235.72 246.13L218.4 236.13L218.4 216.13zM253.04 56.13L270.36 66.13L270.36 86.13L253.04 96.13L235.72 86.13L235.72 66.13zM287.69 56.13L305.01 66.13L305.01 86.13L287.69 96.13L270.36 86.13L270.36 66.13zM322.33 56.13L339.65 66.13L339.65 86.13L322.33 96.13L305.01 86.13L305.01 66.13zM339.65 86.13L356.97 96.13L356.97 116.13L339.65 126.13L322.33 116.13L322.33 96.13zM339.65 146.13L356.97 156.13L356.97 176.13L339.65 186.13L322.33 176.13L322.33 156.13zM374.29 86.13L391.61 96.13L391.61 116.13L374.29 126.13L356.97 116.13L356.97 96.13zM356.97 116.13L374.29 126.13L374.29 146.13L356.97 156.13L339.65 146.13L339.65 126.13z" stroke="rgba(6, 80, 156, 0.93)" stroke-width="2"></path>
    </g>
    <defs>
        <mask id="SvgjsMask1104">
            <rect width="350" height="200" fill="#ffffff"></rect>
        </mask>
    </defs>
</svg>