<svg id="Layer_1" data-name="Layer 1" xmlns="http://www.w3.org/2000/svg" viewBox="0 0 1200 1200"><defs><style>.cls-1,.cls-2,.cls-4,.cls-8{fill:#fff;}.cls-1,.cls-2,.cls-4,.cls-6{stroke:#000;}.cls-1{stroke-miterlimit:10;}.cls-1,.cls-2,.cls-4,.cls-6,.cls-9{stroke-width:4px;}.cls-2,.cls-4,.cls-6,.cls-9{stroke-linecap:round;stroke-linejoin:round;}.cls-3,.cls-6,.cls-9{fill:none;}.cls-4,.cls-5{fill-rule:evenodd;}.cls-7{fill:#e9e8e8;}.cls-9{stroke:#1d252e;}.cls-10{fill:#1d252e;}.cls-11{fill:#9dd5c0;}</style></defs><rect class="cls-1" x="764.14" y="325.87" width="141.76" height="141.76" rx="12.84"/><rect class="cls-1" x="796.17" y="369.44" width="77.71" height="54.62"/><polygon class="cls-2" points="873.88 369.44 835.03 396.75 796.17 369.44 873.88 369.44"/><rect class="cls-1" x="438.45" y="184.56" width="141.76" height="141.76" rx="12.84"/><line class="cls-3" x1="540.84" y1="235.43" x2="519.12" y2="216.05"/><polygon class="cls-4" points="540.84 235.43 540.84 294.82 477.82 294.82 477.82 216.06 519.12 216.06 540.84 235.43"/><polygon class="cls-5" points="519.12 216.06 518.74 231.23 540.84 235.43 519.12 216.06"/><line class="cls-6" x1="489.78" y1="249.28" x2="523.84" y2="249.28"/><line class="cls-6" x1="489.78" y1="260.49" x2="523.84" y2="260.49"/><line class="cls-6" x1="489.78" y1="271.7" x2="523.84" y2="271.7"/><path class="cls-7" d="M1047.68,767.23c-6.34,36.55-35.64,65.28-76,87.63-48.56,26.9-113.1,44.55-172.77,55.43-59.06,10.78-113.34,14.93-142.62,14.87-72.74-.14-201.39,6.32-310.79-15.3-46.94-9.27-90.33-23.72-124.24-46.08-32.25-21.25-55.93-49.65-65.93-87.55C110.31,605.53,483.29,185.89,774.16,455.8,883.44,557.2,1060.65,692.52,1047.68,767.23Z"/><polygon id="Path-36" class="cls-8" points="911.04 680.88 893.15 675.64 890.75 639.67 897.68 632.29 901.19 621.23 909.79 620.73 914.49 612.9 912.56 604.2 910 601.52 914.29 586.75 857.53 579.83 854.12 581.54 845.88 595.96 841.05 612.52 843.93 626.97 850.05 636.05 859.13 642.57 862.65 642.36 864.45 677.03 839.75 676.1 862.61 701.76 911.56 702.72 911.04 680.88"/><path id="Path-20" class="cls-9" d="M904,678.33q-6.6-1.76-10.84-2.69c-.62-10.85-1.07-22.66-2.4-36,3.45-2.86,5.77-5.32,6.93-7.38s2.31-5.73,3.44-11q13.88.29,13.22-10.95t-13.19-9.27"/><path id="Path-21" class="cls-9" d="M850,589.63q-10.31,15.63-8.61,27,4.82,23,22.36,26.61l.72,33.78L852,676.45"/><path id="Path-22" class="cls-9" d="M911.31,597a18.94,18.94,0,0,0-11.62-1.72"/><path id="Path-23" class="cls-10" d="M913.33,593q-9.24-3.56-15.76-3.17-.77-2.94-1.89-6.57-13.53,15.84-41.72-.53c-28.17-16.38,3.83-64.7,32-45.49q15.22,10.66,17.13,17.75,11.86,1,14.4,7.75Q922.7,571.82,913.33,593Z"/><path id="Path-26" class="cls-8" d="M729.37,699.47c-28.35-45.27-34.26-73.63-46.68-87.93-3.89-6.12-4.74-11.16-5.55-17.7s-3.65-20.65-12-32.07-30.44-22-27.09,2.79q3.36,24.74,23,51.7c20.62,74.18,22.11,113.3,34.71,125.94l39.1,10.44,26.58-52.17Z"/><path class="cls-11" d="M971.72,854.86c-48.56,26.9-113.1,44.55-172.77,55.43q-.65-44-2.2-73.83-1.87-35.69.25-81.12s-69,9.38-74.58,1.75,12.94-62.31,17-64.14,83.51-23.05,104.08-17.17c.06.16.11.32.17.47,3.7,10.22,10.28,15.88,31,19.84q20.26,3.87,36.15-15.28l1.17-1.44c22.08,5.78,57.65,14.06,59.08,23.3C972.29,709.84,972,795.65,971.72,854.86Z"/><path id="Path-27" class="cls-8" d="M666.44,574.46q-10.91-12-13.6-5.16C651,573.89,666,600.17,668,599.75S666.44,574.46,666.44,574.46Z"/><path id="Path-28" class="cls-9" d="M799.73,726.32q-1.46,39.57-3.31,59.29"/><path id="Path-30" class="cls-8" d="M1002.34,765.21s13,27.3,18.7,37.39c7.16,12.75-11.2,28.45-11.2,28.45l-116.9,79s-57,23.17-60.22-5.86,59-24.6,59-24.6L969,800.86l-18.29-21.1,43.61-26.2Z"/><path id="Path-30-2" data-name="Path-30" class="cls-9" d="M1000.33,759c6.08,10.38,16.95,33.52,19.21,41,3.56,11.8-9.7,31-9.7,31l-116.9,79s-57,23.17-60.22-5.86,59-24.6,59-24.6l80.06-79.86"/><line class="cls-9" x1="968.95" y1="800.86" x2="957.3" y2="786.17"/><path class="cls-11" d="M922.49,742.38s15.09,44.11,24.93,41.94,63.51-39.06,63.51-39.06l-38.41-42.69C954.08,681,917.57,719.73,922.49,742.38Z"/><path id="Path-26-2" data-name="Path-26" class="cls-9" d="M730.37,700c-28.39-44.81-35.26-74.13-47.68-88.43-3.89-6.12-4.74-11.16-5.55-17.7s-3.65-20.65-12-32.07-30.44-22-27.09,2.79q3.36,24.74,23,51.7c17.79,71,25,113,33.26,126.67l23.26,5.81"/><path id="Path-27-2" data-name="Path-27" class="cls-9" d="M665.71,574.58c-7.28-8-11.08-9.87-12.87-5.28S664,599,668.06,599.45"/><rect class="cls-1" x="565.65" y="441.44" width="141.76" height="141.76" rx="12.84"/><path class="cls-11" d="M665.21,532.15c-11.18-2.59-21.59-4.85-16.55-14.37,15.35-29,4.07-44.48-12.13-44.48-16.53,0-27.52,16.1-12.14,44.48,5.2,9.58-5.61,11.84-16.55,14.37-10,2.3-10.36,7.27-10.33,15.94v3.25h78v-3.15C675.58,539.45,675.24,534.46,665.21,532.15Z"/><path id="Path-102" class="cls-10" d="M322.87,649.84q4.35-17.22-2.49-26.76c-6.84-9.55-23.27-21.71-46.53-18.06s-41,25-45.3,48.07q-4.34,23.11,5.64,49.08,6.41,8.37,13.23,8.22c6.83-.14,20.58-3.94,25.07-9Q277,696.31,322.87,649.84Z"/><path id="Path-103" class="cls-8" d="M319.87,649.9l6.66,16.74-1.64,19.7-9.54,14.45-10.6,6.88.47,34.68,26.17.41-10.7,22.81c-16.05,9-35,10.91-55.41,9.2L233.38,746l39.17-5.87,1.9-31.85L264,695.17l-5-12.63-8.63-.77-2.92-13.49,6-7,11.31-2.66,7-12.63L270,635.54l31.08,14.75Z"/><path id="Path-86" class="cls-9" d="M319.87,649.9a46,46,0,0,1,5.93,33q-3.29,17.42-22.2,24.77l1.62,34.72,15.49.25"/><path id="Path-87" class="cls-9" d="M319.23,648.7q-4.2,3.07-16.85.34T270,635.54a20.62,20.62,0,0,1,.29,14.17,19.59,19.59,0,0,1-8.09,10.74q-10.78-2.54-13.57,5.89c-2.78,8.42.19,15.24,3,16.35,1.89.73,4.32.68,7.31-.15q0,6.4,6.23,14.61t9.17,8.88l-.42,34.37L251.31,743"/><path id="Path-98" class="cls-9" d="M307,706.09a22,22,0,0,1-8.13,2.89,36.31,36.31,0,0,1-12.74-.26"/><path id="Path-104" class="cls-9" d="M249.12,713.89a11.5,11.5,0,0,1-6.65.13q-4-.88-9-6.41"/><path id="Path-105" class="cls-10" d="M248.44,718.27c-1.64.87-4.54.93-8.67.18s-7.53-3.32-10.17-7.69q-5.1.11-9.93,10.13c-4.84,10-1.45,22.43-5.43,29.09q-4,6.66-12.92,12.46,29.9,3,39.86-14.06T248.44,718.27Z"/><path id="Path-93" class="cls-8" d="M328.06,857.2q22.53,34.06,34.53,32.17c8-1.27,108.31-4.36,108.31-4.36s11,2.75,14.9,4.12c11.69,4.11,38.9-6.3,32.12-15-3-3.92-21.84-15.49-29.57-16.64-2.3-.35-5.19-10.68-8.92-10.11-4.63.7-10.49,12.55-17.33,14.66l-88.8-23.15-9.9-10.12Z"/><path id="Path-93-2" data-name="Path-93" class="cls-9" d="M468.73,860.09q-3.12.82-6.63,1.91l-88.8-23.15"/><path id="Path-93-3" data-name="Path-93" class="cls-9" d="M338.47,871.74q15.06,19.07,24.12,17.63c8-1.27,108.31-4.36,108.31-4.36s7.41,2.33,14.9,4.12,38.26-4.19,32.12-15-21.84-15.49-29.57-16.64a22.29,22.29,0,0,0-4.37-.16"/><path class="cls-11" d="M336.26,743.4c7.75,1.17,27.23,27.59,43.95,89.1l-4.67,4.15-34.48,30.64-4.76,4.23-1.25,1.11-2.32-3.82-53.6-82C264.82,768,321.94,724.56,336.26,743.4Z"/><path class="cls-9" d="M483.49,858.08c.75-3.89,1.92-11.67-5-11s-6.08,12.31-10.24,13.27"/><path class="cls-11" d="M340.89,869.84s.51,4.37,1.34,11.45c.76,6.52,1.79,15.34,2.91,25.14.13,1.13.26,2.27.4,3.43-46.94-9.27-90.33-23.72-124.24-46.08-2.32-41.2-3.67-85,.32-93.89,7.92-17.72,6-25.9,16.43-25.59s33.86,29.6,57.29,27.89c18.75-1.49,28.28-32.37,35.9-32.18s15.15,103,15.15,103C343.71,844.64,340.89,869.84,340.89,869.84Z"/><path class="cls-9" d="M341.54,810.81c7.13,10.31,9.24,28.33.78,45.94"/><rect class="cls-1" x="351.74" y="486.9" width="141.76" height="141.76" rx="12.84"/><path class="cls-11" d="M412.6,526h0a5.34,5.34,0,0,0-5.34-5.34H379.91v74.32h85.41V538.39H425A12.43,12.43,0,0,1,412.6,526Z"/><path id="Path-93-4" data-name="Path-93" class="cls-8" d="M326.27,768.8c25.58-9.33,37.4-18.24,39.32-26.1s28.57-109.13,28.57-109.13,8-9.37,7.59-13.48-5.2-31.93-6.85-34.79c-2.48-4.29-20.3,17.46-23.28,24.68q-3,7.23-1.91,26.58l-46.6,76.76-19.23,11.92Z"/><path id="Path-93-5" data-name="Path-93" class="cls-9" d="M340.06,763.23c16.14-7.3,24-14.25,25.53-20.53,1.91-7.87,28.57-109.13,28.57-109.13s8-9.37,7.59-13.48-5.2-31.93-6.85-34.79c-2.48-4.29-20.3,17.46-23.28,24.68q-3,7.23-1.91,26.58l-46.6,76.76-11.44,7.1"/><path id="Path-88" class="cls-11" d="M333.69,769.16,305.64,720c-52.39,24.54-63.39,18.63-72,23.51s-29.5,25.34-20.35,45.28S254,800.89,263,797.34,333.69,769.16,333.69,769.16Z"/><path class="cls-9" d="M256.62,742.16c13.53-12.59,47.26-16.92,47.26-16.92"/><path class="cls-9" d="M300.56,789.77S255.49,814,239,808.45"/><rect class="cls-1" x="163.09" y="350.19" width="141.76" height="141.76" rx="12.84"/><rect class="cls-2" x="190.14" y="388.93" width="87.66" height="64.28"/><polygon class="cls-2" points="241.78 409.87 231.95 425.48 222.26 417.83 206.66 441.09 261.29 441.09 241.78 409.87"/><circle cx="211.84" cy="406.01" r="4.96"/></svg>