<svg id="Layer_1" data-name="Layer 1" xmlns="http://www.w3.org/2000/svg" viewBox="0 0 1200 1200"><defs><style>.cls-1{fill:#e9e8e8;}.cls-2{fill:#9dd5c0;}.cls-3,.cls-5{fill:none;stroke:#1d252e;stroke-linecap:round;stroke-width:4px;}.cls-3{stroke-linejoin:round;}.cls-4{fill:#1d252e;}.cls-6{fill:#fff;}</style></defs><path id="Path-141" class="cls-1" d="M758.14,467.29C647.45,392.45,393.16,193.21,260,309.14S199.75,981.74,592,921.8c147.36-22.52,370-34.95,401.22-104C1045.12,702.94,827.25,514,758.14,467.29Z"/><rect class="cls-2" x="627.02" y="306.31" width="165.91" height="11.31"/><rect class="cls-2" x="627.02" y="333.61" width="296.85" height="11.31"/><path class="cls-2" d="M574.94,282.74v8.37L451.65,293l.18-10.3L506.76,242l5.09-3.77a2.36,2.36,0,0,1,2.81,0l4.52,3.34Z"/><rect class="cls-2" x="451.65" y="283.04" width="123.22" height="85.17" rx="4.79"/><path class="cls-3" d="M460.49,283l102.49,0"/><polyline class="cls-4" points="567.6 288.44 513.26 328.75 459 288.49"/><polyline class="cls-3" points="567.6 288.44 513.26 328.75 459 288.49"/><path class="cls-4" d="M519.18,241.53a6.79,6.79,0,0,1-12.42.43l5.09-3.77a2.36,2.36,0,0,1,2.81,0Z"/><line class="cls-3" x1="457.97" y1="358.77" x2="490.89" y2="358.77"/><line class="cls-3" x1="457.97" y1="351.42" x2="501.11" y2="351.42"/><circle class="cls-2" cx="991.13" cy="325.62" r="29.6"/><circle class="cls-5" cx="991.13" cy="325.62" r="34.68"/><path class="cls-6" d="M1003.7,313l-18.08,18.08-6.53-6.53a3.43,3.43,0,0,0-4.85,0l-.74.75a3.42,3.42,0,0,0,0,4.84l9,9a3.42,3.42,0,0,0,4.84,0l21.25-21.25a3.42,3.42,0,0,0,0-4.84h0A3.42,3.42,0,0,0,1003.7,313Z"/><rect class="cls-2" x="627.02" y="478.84" width="103.39" height="11.31"/><rect class="cls-2" x="741.95" y="478.85" width="50.99" height="11.31"/><line class="cls-5" x1="627.02" y1="506.13" x2="691.62" y2="506.13"/><line class="cls-5" x1="703.15" y1="506.13" x2="874.25" y2="506.16"/><rect class="cls-2" x="451.65" y="455.57" width="123.22" height="85.17" rx="4.79"/><polyline class="cls-3" points="567.6 460.97 513.26 501.29 459 461.02"/><ellipse class="cls-4" cx="512.87" cy="500.2" rx="6.96" ry="7.36"/><line class="cls-3" x1="457.97" y1="531.3" x2="490.89" y2="531.31"/><line class="cls-3" x1="457.97" y1="523.95" x2="501.11" y2="523.96"/><circle class="cls-2" cx="991.13" cy="498.15" r="29.6"/><circle class="cls-6" cx="991.13" cy="498.15" r="7.17"/><rect class="cls-2" x="627.02" y="651.37" width="110.27" height="11.31"/><rect class="cls-2" x="751.01" y="651.38" width="110.86" height="11.31"/><line class="cls-5" x1="627.02" y1="678.66" x2="880.2" y2="678.69"/><rect class="cls-2" x="451.65" y="628.1" width="123.22" height="85.17" rx="4.79"/><polyline class="cls-3" points="567.6 633.51 513.26 673.82 459 633.55"/><ellipse class="cls-4" cx="512.87" cy="672.73" rx="6.96" ry="7.36"/><line class="cls-3" x1="457.97" y1="703.83" x2="490.89" y2="703.84"/><line class="cls-3" x1="457.97" y1="696.48" x2="501.11" y2="696.49"/><circle class="cls-2" cx="991.13" cy="670.69" r="29.6"/><circle class="cls-6" cx="991.13" cy="670.5" r="7.17"/><path id="Path-102" class="cls-4" d="M294.54,281.55q2.35-14.21-3.8-21.47c-6.17-7.27-20.26-16-38.83-11.5s-31.46,22.91-33.43,41.89c-2.46,15.95,1.29,25.76,7.83,39.32q5.73,6.33,11.24,5.76c5.52-.57,16.38-4.56,19.68-9Q260.52,322.2,294.54,281.55Z"/><path id="Path-104" class="cls-5" d="M239.16,338.27a9.37,9.37,0,0,1-5.37.55q-3.3-.45-7.69-4.59"/><path id="Path-105" class="cls-4" d="M238.91,341.85c-1.28.82-3.61,1.06-7,.73s-6.3-2.18-8.73-5.54q-4.12.42-7.36,8.85c-3.24,8.43.33,18.24-2.45,23.89q-2.78,5.66-9.62,10.94,24.38.42,31.3-14T238.91,341.85Z"/><polygon id="Path-109" class="cls-6" points="320.81 705.57 305.55 921.73 360.6 959.69 265.24 962.27 277.08 702.23 320.81 705.57"/><path id="Path-109-Copy" class="cls-6" d="M245.4,697.09C242.1,757.7,234.22,802.43,230.55,833s-10.83,60.76-9.66,81.33L280.11,961l-87.4-2.1c-3-.61-5.59-6.67-5.64-24l12.87-241.35Z"/><polygon id="Path-103" class="cls-6" points="292.06 283.24 296.71 297.1 294.51 312.99 286.13 324.28 277.24 329.38 276.68 345.72 276.85 356.62 295.56 359.86 292.45 373.02 249.44 388.1 230.14 364.87 235.29 358.76 250.42 359.41 252.66 328.54 244.78 317.43 241.26 306.97 234.3 305.97 232.53 294.91 237.69 289.49 246.98 287.83 253.22 277.91 252.29 269.39 276.82 282.72 292.06 283.24"/><path id="Path-89" class="cls-4" d="M312.59,549.21c11.12,55.32,21.64,90,25.38,112.57s5.74,36.6,6,42q-103.12,13.41-127.9,10.41t-41.87-13.27c10.33-80.65,19-132.34,28-152.23S248,529,312.59,549.21Z"/><path id="Path-86" class="cls-5" d="M292.06,283.24a37.24,37.24,0,0,1,3.34,27q-3.43,14-19.09,19.08l.54,27.33,13.09,2.81"/><path id="Path-87" class="cls-5" d="M291.6,282.24q-3.54,2.31-13.66-.47t-25.65-12.38a16.64,16.64,0,0,1-.4,11.49,15.82,15.82,0,0,1-7,8.34q-8.62-2.52-11.26,4.17c-2.63,6.7-.52,12.36,1.73,13.38a9.42,9.42,0,0,0,5.93.2q-.3,5.2,4.39,12.12t7,7.6l-1,30.23-15.36,1.87"/><path id="Path-108" class="cls-6" d="M349.74,378.49,391,386.16,419.53,325l5-17.84,13.68-12,11.47-4.92c12.68,3.12,13.34,13,2.32,29.43l-12.27,9.65-25,77.18L407.31,420l-9,2.39-52.6-5Z"/><path id="Path-88" class="cls-2" d="M295.56,359.86c-.46,7-15.95,14.24-24.79,14.93s-29.51-7.43-40.61-15.64c-19.07-1.34-21.89,3.34-28.47,17.72-8.13,25.68,9.49,63.38,9.49,63.38l-10,108.89,115.47,3.24q-1.39-27.3-2.16-38.49c-2.06-30.31-3.89-48.18-4.73-53.05,1.53-5.59,7.1-34.07,5.1-37.07l37.22-1.12,4.47-46.27C338.7,369.39,325.44,366.3,295.56,359.86Z"/><path id="Path-108-2" data-name="Path-108" class="cls-5" d="M361,380.44l30,5.72L419.53,325l5-17.84c7.45-8.58,15.64-14.83,25.15-16.95,12.68,3.12,13.34,13,2.32,29.43l-12.27,9.65-25,77.18L407.31,420l-9,2.39-38.14-3.22"/><path id="Path-94" class="cls-5" d="M243.94,720.17,220.68,916.06l59.06,42.65a1.63,1.63,0,0,1-1,3q-80.46-.39-86.06-2.78-5.78-2.48-5.32-22.73l11.66-220.25"/><path id="Path-95" class="cls-5" d="M320.88,711.54,305.55,921.73l54.36,37.07a1.65,1.65,0,0,1,.43,2.27,1.67,1.67,0,0,1-1.36.71l-69.52-.08h0"/><line id="Path-96" class="cls-5" x1="277.58" y1="716.18" x2="266.63" y2="937.63"/><path id="Path-98" class="cls-5" d="M279.16,328.2a17.79,17.79,0,0,1-6.71,2,29.49,29.49,0,0,1-10.31-.78"/><path id="Path-99" class="cls-5" d="M302.52,395.76q10.82,16,11.37,32.86t-6.34,25.45L311.88,491"/><path id="Path-100" class="cls-5" d="M294.88,457.57Q284,467.1,275.23,468.1"/><path id="Path-108-3" data-name="Path-108" class="cls-6" d="M225.35,431.3l-5.86,42.57,16.43,76.75L251,561.42l6.67,17s7.16,10.08,3.36,16.91c-5,9.1-31.77-14.95-31.9-17.33l-11.52-20.53-34.42-81.64.78-9.29,2.38-37.83C200.67,417.33,213.73,417.7,225.35,431.3Z"/><path id="Path-93" class="cls-5" d="M185.58,435.31c-2.8,21.92-3.5,33-2,39.35,0,0,30.69,69.93,34.07,80.9S229.11,578,229.11,578c17.87,18.93,26.52,22.14,31.09,17.93s-5-26.77-8.44-32.12q-3.4-5.34-16.75-13.67l-15.54-75.93,5.14-33.34"/><path class="cls-2" d="M201,372.49S179.56,414,181.66,424.67,233,436.12,233,436.12l4-29.82L221.6,363.51C216.48,355.83,204.69,364.05,201,372.49Z"/></svg>