<svg xmlns="http://www.w3.org/2000/svg" version="1.1" xmlnsXlink="http://www.w3.org/1999/xlink" xmlnsSvgjs="http://svgjs.com/svgjs" width="320" height="185" preserveAspectRatio="none" viewBox="0 0 320 185">
    <g mask="url(&quot;#SvgjsMask1020&quot;)" fill="none">
        <rect width="320" height="185" x="0" y="0" fill="#0e2a47"></rect>
        <path d="M -190.3865015342213,51.5 C -168.99,70.5 -126.19,141.5 -83.38650153422131,146.5 C -40.59,151.5 -19.19,78.5 23.61349846577869,76.5 C 66.41,74.5 87.81,135.3 130.6134984657787,136.5 C 173.41,137.7 199.74,81.1 237.6134984657787,82.5 C 275.49,83.9 303.52,131.3 320,143.5" stroke="rgba(51, 121, 194, 0.58)" stroke-width="2"></path>
        <path d="M -211.28333172383952,134.5 C -189.88,123.5 -147.08,77.9 -104.28333172383952,79.5 C -61.48,81.1 -40.08,146.1 2.716668276160476,142.5 C 45.52,138.9 66.92,65.1 109.71666827616048,61.5 C 152.52,57.9 174.66,128.5 216.71666827616048,124.5 C 258.77,120.5 299.34,58.1 320,41.5" stroke="rgba(51, 121, 194, 0.58)" stroke-width="2"></path>
        <path d="M -171.44409006834707,128.5 C -150.04,110.3 -107.24,38.5 -64.44409006834705,37.5 C -21.64,36.5 -0.24,122.9 42.55590993165295,123.5 C 85.36,124.1 106.76,46.5 149.55590993165293,40.5 C 192.36,34.5 222.47,89.3 256.55590993165293,93.5 C 290.64,97.7 307.31,67.9 320,61.5" stroke="rgba(51, 121, 194, 0.58)" stroke-width="2"></path>
    </g>
    <defs>
        <mask id="SvgjsMask1020">
            <rect width="320" height="185" fill="#ffffff"></rect>
        </mask>
    </defs>
</svg>